<?xml version="1.0" encoding="utf-8"?>
<?xml-stylesheet type="text/xsl" href="rss1.xsl"?>
<rss version="2.0" xmlns:atom="http://www.w3.org/2005/Atom" xmlns:content="http://purl.org/rss/1.0/modules/content/" xmlns:dc="http://purl.org/dc/elements/1.1/" xmlns:media="http://search.yahoo.com/mrss/">
<channel>
 <title>Getty</title>
 <link>http://www.gettyimg.com/</link>
 <atom:link href="http://www.gettyimg.com/" rel="self" type="application/rss+xml" />

 
                <item>
                <title><![CDATA[【HD Live Performances】WEB-RiP - Al Bano - 4 volte 20 - 2023 - Canale5 1080p IPTV]]></title>
                <link><![CDATA[https://sharemania.us/threads/al-bano-4-volte-20-2023-canale5-1080p-iptv.234786/]]></link>
                <description><![CDATA[<article>
<blockquote class="messageText SelectQuoteContainer ugc baseHtml">
<img src="https://i.imgur.com/1OowFak.jpg" class="bbCodeImage LbImage" alt="[​IMG]" data-url="https://i.imgur.com/1OowFak.jpg" style=""><br>
<br>
<div class="bbCodeBlock bbCodeCode">
<div class="type">Code:</div>
<pre>General
Complete name                            : Al Bano - 4 volte 20 - Canale5 1080p IPTV.mkv
Format                                   : Matroska
Format version                           : Version 4
File size                                : 9.49 GiB
Duration                                 : 2 h 49 min
Overall bit rate                         : 8 038 kb/s
Encoded date                             : UTC 2023-12-27 22:50:23
Writing application                      : mkvmerge v55.0.0 ('Waiting For Space') 64-bit
Writing library                          : libebml v1.4.2 + libmatroska v1.6.4
Video
ID                                       : 1
Format                                   : AVC
Format/Info                              : Advanced Video Codec
Format profile                           : Main@L4.2
Format settings                          : CABAC / 2 Ref Frames
Format settings, CABAC                   : Yes
Format settings, Reference frames        : 2 frames
Codec ID                                 : V_MPEG4/ISO/AVC
Duration                                 : 2 h 49 min
Bit rate                                 : 7 652 kb/s
Width                                    : 1 920 pixels
Height                                   : 1 080 pixels
Display aspect ratio                     : 16:9
Frame rate mode                          : Constant
Frame rate                               : 50.000 FPS
Color space                              : YUV
Chroma subsampling                       : 4:2:0
Bit depth                                : 8 bits
Scan type                                : Progressive
Bits/(Pixel*Frame)                       : 0.074
Stream size                              : 9.04 GiB (95%)
Language                                 : Italian
Default                                  : Yes
Forced                                   : No
Audio #1
ID                                       : 2
Format                                   : E-AC-3
Format/Info                              : Enhanced AC-3
Commercial name                          : Dolby Digital Plus
Codec ID                                 : A_EAC3
Duration                                 : 2 h 49 min
Bit rate mode                            : Constant
Bit rate                                 : 256 kb/s
Channel(s)                               : 6 channels
Channel layout                           : L R C LFE Ls Rs
Sampling rate                            : 48.0 kHz
Frame rate                               : 31.250 FPS (1536 SPF)
Compression mode                         : Lossy
Stream size                              : 310 MiB (3%)
Language                                 : Italian
Service kind                             : Complete Main
Default                                  : Yes
Forced                                   : No
Audio #2
ID                                       : 3
Format                                   : AAC LC
Format/Info                              : Advanced Audio Codec Low Complexity
Codec ID                                 : A_AAC-2
Duration                                 : 2 h 49 min
Bit rate                                 : 127 kb/s
Channel(s)                               : 2 channels
Channel layout                           : L R
Sampling rate                            : 48.0 kHz
Frame rate                               : 46.875 FPS (1024 SPF)
Compression mode                         : Lossy
Stream size                              : 153 MiB (2%)
Language                                 : Italian
Default                                  : No
Forced                                   : No
</pre>
</div>Pixeldrain:<br>
<div class="bbCodeBlock bbCodeVfcHH HiddenContent">
<div class="attribution type">Hidden Content:</div>
<blockquote>You must reply before you can see the hidden data contained here.</blockquote>
</div>
<div class="messageTextEndMarker">&nbsp;</div>
</blockquote>
</article>]]></description>
                <author><![CDATA[LLAVE1]]></author>
                </item>

                </channel></rss>